<?xml version="1.0" encoding="UTF-8"?>
<svg version="1.1" xmlns="http://www.w3.org/2000/svg" width="500" height="308">
<path d="M0 0 C2.3230249 0.01611516 4.64431129 0.00000981 6.96728516 -0.01904297 C44.89086358 -0.07312267 77.40712777 15.11544869 104.08447266 41.57861328 C106.85677264 44.34657439 109.61885773 47.12331586 112.36450195 49.91772461 C117.34300399 54.97834433 122.42027857 59.78813127 127.82275391 64.39111328 C128.68900391 65.17357422 129.55525391 65.95603516 130.44775391 66.76220703 C147.16714198 81.30917462 166.0107624 85.89538856 187.82275391 84.39111328 C202.02503818 82.72025631 215.30508706 74.71180685 225.82275391 65.39111328 C226.43119141 64.91287109 227.03962891 64.43462891 227.66650391 63.94189453 C232.48105285 60.12308184 236.12305326 55.50725472 239.90478516 50.68408203 C241.82275391 48.39111328 241.82275391 48.39111328 243.82275391 47.39111328 C240.71444452 68.45854353 230.33351729 89.10770628 216.82275391 105.39111328 C215.72640625 106.715625 215.72640625 106.715625 214.60791016 108.06689453 C195.93753253 129.69040746 168.85758249 140.68643006 140.82275391 143.39111328 C138.11432552 143.51230885 135.42979064 143.59999697 132.72119141 143.62939453 C131.59516006 143.64408531 131.59516006 143.64408531 130.44638062 143.65907288 C95.17777728 144.02446934 63.78442732 138.36097118 35.82275391 115.39111328 C34.83146484 114.60220703 33.84017578 113.81330078 32.81884766 113.00048828 C26.91512903 108.19182885 21.41470725 103.04289937 16.05322266 97.63720703 C15.53843353 97.11845505 15.02364441 96.59970306 14.49325562 96.06523132 C11.91029021 93.45596113 9.3408977 90.83480217 6.78857422 88.19555664 C-8.9502994 72.05114129 -26.72640233 59.69380173 -50.0078125 58.91845703 C-72.85322443 58.68979875 -90.97928427 68.34089114 -107.11474609 84.01611328 C-110.43417282 87.44557625 -113.34300798 91.05232397 -116.08349609 94.95751953 C-116.44443359 95.43060547 -116.80537109 95.90369141 -117.17724609 96.39111328 C-117.50724609 96.39111328 -117.83724609 96.39111328 -118.17724609 96.39111328 C-115.66897661 69.29560959 -98.66978159 41.76183269 -78.17724609 24.39111328 C-55.61764485 6.76873625 -28.23397062 -0.231572 0 0 Z " fill="#00B9D8" transform="translate(126.17724609375,154.60888671875)"/>
<path d="M0 0 C0.75068756 -0.00979385 1.50137512 -0.01958771 2.27481079 -0.02967834 C37.54341413 -0.39507481 68.93676408 5.26842336 96.8984375 28.23828125 C97.88972656 29.0271875 98.88101563 29.81609375 99.90234375 30.62890625 C105.80606238 35.43756568 111.30648415 40.58649517 116.66796875 45.9921875 C117.18275787 46.51093948 117.697547 47.02969147 118.22793579 47.56416321 C120.81090119 50.1734334 123.38029371 52.79459236 125.93261719 55.43383789 C142.669219 72.60333377 160.67267684 84.34101556 185.3359375 84.67578125 C207.07569434 84.55427622 224.551436 74.46181542 239.8359375 59.61328125 C243.15536422 56.18381828 246.06419938 52.57707056 248.8046875 48.671875 C249.165625 48.19878906 249.5265625 47.72570313 249.8984375 47.23828125 C250.2284375 47.23828125 250.5584375 47.23828125 250.8984375 47.23828125 C248.39016802 74.33378494 231.39097299 101.86756184 210.8984375 119.23828125 C188.33883626 136.86065828 160.95516203 143.86096653 132.72119141 143.62939453 C130.3981665 143.61327937 128.07688011 143.62938472 125.75390625 143.6484375 C87.98793081 143.70229246 55.44918883 128.63959869 28.859375 102.2734375 C26.22760895 99.64599843 23.60601175 97.00990597 21.00097656 94.35595703 C16.67209206 89.95165944 12.28758035 85.71900112 7.59619141 81.7019043 C5.58727544 79.97003038 3.6902605 78.13339236 1.7734375 76.30078125 C-14.58102604 61.80413973 -33.90586066 58.13515922 -55.1015625 59.23828125 C-69.28521326 60.86112459 -82.61004534 68.94076138 -93.1015625 78.23828125 C-93.71 78.71652344 -94.3184375 79.19476563 -94.9453125 79.6875 C-99.75986145 83.50631269 -103.40186186 88.12213981 -107.18359375 92.9453125 C-109.1015625 95.23828125 -109.1015625 95.23828125 -111.1015625 96.23828125 C-107.99325312 75.170851 -97.61232588 54.52168825 -84.1015625 38.23828125 C-83.37066406 37.35527344 -82.63976562 36.47226562 -81.88671875 35.5625 C-61.64627542 12.12058057 -30.61111106 0.33223517 0 0 Z " fill="#00B9D8" transform="translate(239.1015625,11.76171875)"/>
</svg>
